<svg xmlns="http://www.w3.org/2000/svg" width="130.935" height="29.2" viewBox="0 0 130.9351 29.2002"><path fill="#DCDCEF" d="M69.252 20.212H58.518v-3.794a4.88 4.88 0 0 1 1.448-3.483 4.884 4.884 0 0 1 3.468-1.433h.02l4.903.02a2.008 2.008 0 0 0-2.005-1.943h-5.09V6.45h5.09a5.14 5.14 0 0 1 5.135 5.135v6.392a2.238 2.238 0 0 1-2.235 2.235m-7.605-3.13h6.71v-2.43l-4.915-.02h-.008a1.77 1.77 0 0 0-1.26.52c-.34.338-.527.788-.527 1.267v.66zm-23.5 3.13H27.414v-3.794c0-1.316.514-2.553 1.448-3.483a4.884 4.884 0 0 1 3.47-1.433h.02l4.903.02A2.008 2.008 0 0 0 35.25 9.58h-4.52V6.45h4.517a5.14 5.14 0 0 1 5.135 5.135v6.392a2.238 2.238 0 0 1-2.234 2.235m-7.606-3.13h6.71v-2.43l-4.915-.02h-.006a1.77 1.77 0 0 0-1.26.52c-.34.338-.52.79-.52 1.267v.66zm-9.587 3.106h-3.13V12.93a6.49 6.49 0 0 1 6.482-6.48h4.58v3.13h-4.58a3.355 3.355 0 0 0-3.352 3.35v7.258zM12.855 0v6.45h-7.72A5.14 5.14 0 0 0 0 11.586v8.626h8.468c4.144 0 7.516-3.37 7.516-7.516V0h-3.13zm0 12.696a4.392 4.392 0 0 1-4.387 4.387h-5.34v-5.497c0-1.107.9-2.007 2.007-2.007h7.72v3.11zm43.808 1.074v-.84a6.49 6.49 0 0 0-6.48-6.48h-7.958v8.845a4.922 4.922 0 0 0 4.916 4.917h6.41v2.062h-7.98v3.128h8.87a2.236 2.236 0 0 0 2.24-2.234v-9.4h-.01zm-3.13 3.313H47.14a1.79 1.79 0 0 1-1.786-1.788V9.58h4.83a3.355 3.355 0 0 1 3.35 3.35v4.153z"/><path fill="#00CEB0" d="M126.812 13.73V6.495h-3.13v5.833h-4.487c-1.08 0-1.96-.88-1.96-1.96V6.495h-3.128v3.874a5.094 5.094 0 0 0 5.088 5.08h4.472a2.005 2.005 0 0 1-1.974 1.675h-4.823v3.13h4.823a5.138 5.138 0 0 0 5.132-5.133v-1.4h-.013z"/><path fill="#DCDCEF" d="M87.562 20.188h-3.13V12.93a3.355 3.355 0 0 0-3.35-3.35h-4.624v10.608H73.33V6.45h7.75a6.488 6.488 0 0 1 6.482 6.48v7.258z"/><path fill="#00CEB0" d="M94.32 9.58h7.803V6.45H94.32a4.922 4.922 0 0 0-4.915 4.917v8.82h3.128V15.9h9.464v-3.13h-9.464v-1.403A1.79 1.79 0 0 1 94.32 9.58m20.695 10.706h-6.105a4.923 4.923 0 0 1-4.917-4.917v-8.9h3.13v8.9a1.79 1.79 0 0 0 1.787 1.78h6.105v3.13zm13.52-13.36V8.34h-.446V6.925h-.45v-.398h1.34v.398zm1.955 1.416v-.868l-.26.448h-.284l-.258-.448v.868h-.446V6.527h.44l.407.8.4-.8h.44v1.815z"/><path fill="#DCDCEF" d="M62.483 26.29h.657v2.845h-.657zm3.06 2.846v-2.844h.57l1.544 1.833v-1.833h.657v2.844h-.57L66.2 27.294v1.842zm5.16 0v-2.844h.572l1.543 1.833v-1.833h.657v2.844h-.572l-1.543-1.842v1.842zm7.68-2.496c.27.26.445.637.445 1.076 0 .38-.137.768-.444 1.066-.264.256-.622.418-1.1.418-.533 0-.896-.213-1.11-.418a1.453 1.453 0 0 1-.443-1.058c0-.41.19-.823.44-1.08.2-.19.55-.416 1.12-.416.446 0 .818.136 1.1.413m-1.724.44a.873.873 0 0 0-.25.65.85.85 0 0 0 .868.875c.29 0 .496-.107.633-.244.11-.105.245-.306.245-.634a.9.9 0 0 0-.246-.64.917.917 0 0 0-.627-.24c-.248 0-.47.09-.623.242m4.696-.786l.72 1.826.723-1.822.708.002-1.207 2.844h-.443l-1.21-2.847zm5.605 2.31H85.89l-.22.538h-.68l1.14-2.848h.6l1.12 2.843h-.68l-.215-.54zm-.18-.503l-.35-.955-.356.956h.702zm3.98-1.25v2.29h-.66v-2.29h-.618v-.56h1.893v.554zm2.74-.556h.657v2.846h-.66zm5.58.35c.267.26.44.638.44 1.077 0 .38-.135.768-.442 1.066-.265.256-.623.418-1.1.418-.534 0-.897-.212-1.11-.417a1.453 1.453 0 0 1-.444-1.058c0-.41.183-.824.44-1.08.19-.19.545-.417 1.112-.417.44 0 .814.137 1.1.414m-1.73.438a.873.873 0 0 0-.25.646.85.85 0 0 0 .87.876c.29 0 .495-.105.63-.242a.845.845 0 0 0 .25-.633.9.9 0 0 0-.25-.64.917.917 0 0 0-.627-.24.88.88 0 0 0-.626.242m4.43 2.06V26.3h.57l1.544 1.834V26.3h.657v2.845h-.57l-1.543-1.84v1.84zm6.627-2.15c-.21-.19-.395-.203-.476-.203-.09 0-.2.014-.277.1a.258.258 0 0 0-.072.18c0 .066.024.117.067.155.07.067.167.09.36.165l.21.08c.126.046.28.11.39.216a.71.71 0 0 1 .21.53c0 .294-.103.55-.252.704-.252.263-.62.29-.806.29a1.2 1.2 0 0 1-.563-.12 1.8 1.8 0 0 1-.42-.31l.34-.47a1.8 1.8 0 0 0 .266.216c.11.068.23.102.36.102a.455.455 0 0 0 .3-.1.296.296 0 0 0 .1-.23.25.25 0 0 0-.1-.205c-.073-.063-.25-.127-.33-.157l-.234-.084c-.133-.048-.287-.108-.397-.227-.15-.16-.17-.36-.17-.495a.88.88 0 0 1 .245-.64c.2-.203.44-.26.706-.26.195 0 .51.035.843.283l-.294.477zm5.42-.695h.656v2.844h-.656zm3.057 2.845V26.32h.573L119 28.15V26.32h.657v2.843h-.57l-1.544-1.84v1.84zm7.218-.09a1.326 1.326 0 0 1-.63.155c-.522 0-.876-.18-1.115-.413a1.488 1.488 0 0 1-.446-1.08c0-.447.19-.82.446-1.07a1.51 1.51 0 0 1 1.063-.408c.19 0 .406.037.683.156v.76a.903.903 0 0 0-.667-.303c-.24 0-.43.08-.58.223a.91.91 0 0 0-.27.658c0 .296.12.505.25.63.057.06.262.24.612.24.17 0 .4-.047.65-.294v.754z"/></svg>