<svg xmlns="http://www.w3.org/2000/svg" viewBox="0 0 653.18 157.39"><title>Wingtra-Logo-Horizontal</title><path d="M1396.37,83.12l-12.85,49h-20.09l-22.6-77h22.45L1374.21,107l12.85-48.74h19.79l12.7,48.6,11.23-51.7h21l-22.45,77h-19.65Z" transform="translate(-1172.67 -9.92)"/><path d="M1458.71,55.2h21.86v77h-21.86v-77Z" transform="translate(-1172.67 -9.92)"/><path d="M1492.54,132.16v-77h19.05l1.18,7.83q8.27-9.6,22.6-9.6,13,0,20,6.94t7,19.64v52.14h-21.86V85q0-8-2.88-11.23t-9.23-3.25q-7.53,0-10.78,4.06T1514.4,87.4v44.76h-21.86Z" transform="translate(-1172.67 -9.92)"/><path d="M1571.22,91q0-10.34,2.81-17.5a29.08,29.08,0,0,1,7.9-11.59,31.12,31.12,0,0,1,12.19-6.43,57.77,57.77,0,0,1,15.66-2,71.78,71.78,0,0,1,18.68,2.36,60.65,60.65,0,0,1,14.84,5.91v64.84a55.09,55.09,0,0,1-2.44,17,33.41,33.41,0,0,1-7.46,12.85,32.51,32.51,0,0,1-12.7,8.12,52.52,52.52,0,0,1-18,2.81q-2.66,0-6.2-.22t-7.39-.74q-3.84-.52-7.9-1.48a49.37,49.37,0,0,1-7.61-2.44l3.4-16.25a82.57,82.57,0,0,0,11.59,2.66,74.57,74.57,0,0,0,11.74,1q11.37,0,16.25-5.32t4.87-17v-3.69a35.84,35.84,0,0,1-3.1,2.73,21.76,21.76,0,0,1-4.28,2.58,27.59,27.59,0,0,1-5.91,1.92,37,37,0,0,1-7.83.74,32.21,32.21,0,0,1-13.37-2.51,22.45,22.45,0,0,1-9-7.24,31.65,31.65,0,0,1-5.09-11.45,65.2,65.2,0,0,1-1.63-15.29V91Zm22.16,4.28q0,10.19,3.1,14.84t10.78,4.65q7.09,0,10.64-4.14T1621.44,97V72.49a24.73,24.73,0,0,0-5.54-1.7,33.49,33.49,0,0,0-6.57-.66,21,21,0,0,0-6.5,1,12.24,12.24,0,0,0-5.1,3.17,14.22,14.22,0,0,0-3.25,5.83,30.94,30.94,0,0,0-1.11,8.94v6.2Z" transform="translate(-1172.67 -9.92)"/><path d="M1676.21,71.3v32.35q0,7.24,3,10.27t10.56,3a47.58,47.58,0,0,0,5.32-.3q2.66-.29,4.73-0.59l-2.51,15.36a39.24,39.24,0,0,1-6.79,1.55,58.61,58.61,0,0,1-9,.66q-14.18,0-20.75-7.16t-6.57-23.12V71.3l0.15-16.1V36.74l21.86-2.81V55.2h23l-2.36,16.1h-20.68Z" transform="translate(-1172.67 -9.92)"/><path d="M1757.06,73.76c-1-.3-3-1-4.68-1.35a28.34,28.34,0,0,0-5.54-.52,22,22,0,0,0-8.27,1.33,12.66,12.66,0,0,0-5.24,3.84,15,15,0,0,0-2.81,6,34.06,34.06,0,0,0-.81,7.75v41.36h-21.86v-77h19.05l1.18,8.42q1.33-1.48,3.17-3.18a22.09,22.09,0,0,1,4.43-3.1,26.16,26.16,0,0,1,6.13-2.29,33.67,33.67,0,0,1,8.12-.89,33,33,0,0,1,5.32.37,37.53,37.53,0,0,1,5,1.25Z" transform="translate(-1172.67 -9.92)"/><path d="M1758.65,108.53a28.53,28.53,0,0,1,2-11.37,19,19,0,0,1,5.61-7.46,22.39,22.39,0,0,1,8.71-4.14,47.36,47.36,0,0,1,11.3-1.25,41.19,41.19,0,0,1,11.08,1.33,18.32,18.32,0,0,1,7.83,4.28v-4q0-8.56-4.65-12.19t-14.4-3.62a69,69,0,0,0-9.31.66q-4.87.66-11.82,2.14l2.66-16.4A83.42,83.42,0,0,1,1779,54.32a94.37,94.37,0,0,1,12.41-.89q17,0,25.7,7.53t8.71,21.86v49.33h-18.46l-1.33-7.39a19.69,19.69,0,0,1-9.23,6.8,36.77,36.77,0,0,1-12.63,2.07,38.81,38.81,0,0,1-10.12-1.25,21.73,21.73,0,0,1-8.12-4.06,18.43,18.43,0,0,1-5.39-7.39,29,29,0,0,1-1.92-11.23v-1.18Zm20.24,0.15q0,4.73,3,7.16t9.6,2.44q7.09,0,10.49-2.66a8.85,8.85,0,0,0,3.4-7.39V107q0-8.71-12.41-8.71h-2.51q-11.52,0-11.52,9.6v0.74Z" transform="translate(-1172.67 -9.92)"/><path d="M1329.15,85.93c-1.31-41.15-34.68-74.66-75.66-76-45.25-1.45-82.22,35.68-80.78,81.12,1.31,41.15,34.68,74.66,75.66,76C1293.62,168.5,1330.59,131.37,1329.15,85.93ZM1250.93,22A66.09,66.09,0,0,1,1304,48.76h0c-15,15.08-32.79,32.92-47.74,47.94V59.49a15.63,15.63,0,0,0-15.33-15.65l-39.06.05A65.93,65.93,0,0,1,1250.93,22Zm0,133a66.48,66.48,0,0,1-64.77-80.36h32.38a5.92,5.92,0,0,1,5.66,5.95V129c1.11,0.48,17.86,7.52,27.15,11.5,2.49,1.07,7.23.7,10.95-3,18.91-19,36.71-36.89,54.56-54.82,0.17,1.93.3,3.88,0.3,5.86A66.45,66.45,0,0,1,1250.93,155Z" transform="translate(-1172.67 -9.92)"/></svg>