<?xml version="1.0" encoding="UTF-8"?>
<svg width="197px" height="59px" viewBox="0 0 197 59" version="1.1" xmlns="http://www.w3.org/2000/svg" xmlns:xlink="http://www.w3.org/1999/xlink">
    <!-- Generator: Sketch 40.3 (33839) - http://www.bohemiancoding.com/sketch -->
    <title>Get_it_on_Google_play</title>
    <desc>Created with Sketch.</desc>
    <defs>
        <linearGradient x1="91.4895098%" y1="4.9604069%" x2="-38.3173161%" y2="71.909245%" id="linearGradient-1">
            <stop stop-color="#00A0FF" offset="0%"></stop>
            <stop stop-color="#00A1FF" offset="0.66%"></stop>
            <stop stop-color="#00BEFF" offset="26.01%"></stop>
            <stop stop-color="#00D2FF" offset="51.22%"></stop>
            <stop stop-color="#00DFFF" offset="76.04%"></stop>
            <stop stop-color="#00E3FF" offset="100%"></stop>
        </linearGradient>
        <linearGradient x1="107.585647%" y1="50.0163647%" x2="-130.492257%" y2="50.0163647%" id="linearGradient-2">
            <stop stop-color="#FFE000" offset="0%"></stop>
            <stop stop-color="#FFBD00" offset="40.87%"></stop>
            <stop stop-color="#FFA500" offset="77.54%"></stop>
            <stop stop-color="#FF9C00" offset="100%"></stop>
        </linearGradient>
        <linearGradient x1="86.237735%" y1="117.851014%" x2="-50.1313759%" y2="294.785269%" id="linearGradient-3">
            <stop stop-color="#FF3A44" offset="0%"></stop>
            <stop stop-color="#C31162" offset="100%"></stop>
        </linearGradient>
        <linearGradient x1="-18.8012883%" y1="-154.171052%" x2="42.0936259%" y2="-75.1365546%" id="linearGradient-4">
            <stop stop-color="#32A071" offset="0%"></stop>
            <stop stop-color="#2DA771" offset="6.85%"></stop>
            <stop stop-color="#15CF74" offset="47.62%"></stop>
            <stop stop-color="#06E775" offset="80.09%"></stop>
            <stop stop-color="#00F076" offset="100%"></stop>
        </linearGradient>
    </defs>
    <g id="SHIP-SHIT" stroke="none" stroke-width="1" fill="none" fill-rule="evenodd">
        <g id="Homepage" transform="translate(-932.000000, -2447.000000)">
            <g id="Get-the-app-" transform="translate(691.000000, 2261.000000)">
                <g id="Get_it_on_Google_play" transform="translate(240.000000, 185.000000)">
                    <g id="svg2">
                        <g id="g10" transform="translate(99.746721, 30.942391) scale(1, -1) translate(-99.746721, -30.942391) translate(0.471359, 1.232246)">
                            <g id="g12" transform="translate(1.274188, 0.000000)">
                                <path d="M188.891191,1.31492391 L7.29838333,1.31492391 C3.30515749,1.31492391 0.0346710145,4.5473592 0.0346710145,8.494125 L0.0346710145,51.5693315 C0.0346710145,55.5160973 3.30515749,58.7485326 7.29838333,58.7485326 L188.891191,58.7485326 C192.884417,58.7485326 196.154904,55.5160973 196.154904,51.5693315 L196.154904,8.494125 C196.154904,4.5473592 192.884417,1.31492391 188.891191,1.31492391 L188.891191,1.31492391 Z" id="path14" fill="#000000"></path>
                                <g id="g18" transform="translate(64.500118, 44.390130) scale(1, -1) translate(-64.500118, -44.390130) translate(59.960298, 39.005730)" stroke="#FFFFFF" stroke-width="0.625" fill="#FFFFFF">
                                    <path d="M8.95978915,5.73438687 C8.95978915,6.93331345 8.59660353,7.8935316 7.88112787,8.6096569 C7.05851245,9.45859743 5.98711488,9.8857599 4.67419888,9.8857599 C3.41939257,9.8857599 2.34799501,9.45141823 1.46908582,8.5952985 C0.588360698,7.72661517 0.148906103,6.66050381 0.148906103,5.38440082 C0.148906103,4.10829782 0.588360698,3.04218646 1.46908582,2.18068233 C2.34799501,1.3173834 3.41939257,0.883041734 4.67419888,0.883041734 C5.29887814,0.883041734 5.89450255,1.01047255 6.46288804,1.24738619 C7.0294576,1.48609462 7.49070333,1.80915867 7.8248341,2.20760433 L7.06577616,2.96501005 C6.48286324,2.28478075 5.68930267,1.9491531 4.67419888,1.9491531 C3.75897113,1.9491531 2.96541055,2.26503794 2.29170124,2.90219204 C1.62525563,3.54114094 1.29112486,4.36854386 1.29112486,5.38440082 C1.29112486,6.40025777 1.62525563,7.2348399 2.29170124,7.87378879 C2.96541055,8.50376369 3.75897113,8.82682774 4.67419888,8.82682774 C5.6457204,8.82682774 6.46288804,8.50376369 7.1075425,7.86660959 C7.53246967,7.44483153 7.77398811,6.86331624 7.83754559,6.12026893 L4.67419888,6.12026893 L4.67419888,5.08287437 L8.89441573,5.08287437 C8.94526172,5.3072244 8.95978915,5.52439524 8.95978915,5.73438687 L8.95978915,5.73438687 Z" id="path20"></path>
                                </g>
                                <g id="g22" transform="translate(72.671794, 44.390130) scale(1, -1) translate(-72.671794, -44.390130) translate(69.039938, 39.005730)" stroke-width="0.625" stroke="#FFFFFF" fill="#FFFFFF">
                                    <polygon id="path24" points="6.57547558 2.13760712 2.61130458 2.13760712 2.61130458 4.86570354 6.18505104 4.86570354 6.18505104 5.90309809 2.61130458 5.90309809 2.61130458 8.63119451 6.57547558 8.63119451 6.57547558 9.68833187 1.48906103 9.68833187 1.48906103 1.08046976 6.57547558 1.08046976"></polygon>
                                </g>
                                <g id="g26" transform="translate(79.935507, 44.390130) scale(1, -1) translate(-79.935507, -44.390130) translate(76.303650, 39.005730)" stroke-width="0.625" stroke="#FFFFFF" fill="#FFFFFF">
                                    <polygon id="path28" points="4.03680812 9.68833187 2.91456457 9.68833187 2.91456457 2.13760712 0.483036869 2.13760712 0.483036869 1.08046976 6.47015175 1.08046976 6.47015175 2.13760712 4.03680812 2.13760712 4.03680812 9.68833187"></polygon>
                                </g>
                                <g id="g30" transform="translate(87.199219, 44.390130) scale(1, -1) translate(-87.199219, -44.390130) translate(85.383291, 39.005730)" stroke-width="0.625" stroke="#FFFFFF" fill="#FFFFFF">
                                    <polygon id="path32" points="1.72331575 9.68833187 1.72331575 1.08046976 2.84374337 1.08046976 2.84374337 9.68833187"></polygon>
                                </g>
                                <g id="g34" transform="translate(92.647003, 44.390130) scale(1, -1) translate(-92.647003, -44.390130) translate(89.015147, 39.005730)" stroke-width="0.625" stroke="#FFFFFF" fill="#FFFFFF">
                                    <polygon id="path36" points="4.17845051 9.68833187 3.0652866 9.68833187 3.0652866 2.13760712 0.624679259 2.13760712 0.624679259 1.08046976 6.61905785 1.08046976 6.61905785 2.13760712 4.17845051 2.13760712"></polygon>
                                </g>
                                <g id="g38" transform="translate(103.542572, 44.390130) scale(1, -1) translate(-103.542572, -44.390130) translate(98.094787, 39.005730)" stroke="#FFFFFF" stroke-width="0.625" fill="#FFFFFF">
                                    <path d="M8.87444053,8.5809401 C8.01550654,9.45141823 6.95137269,9.8857599 5.68203896,9.8857599 C4.40544152,9.8857599 3.34130767,9.45141823 2.48237368,8.5809401 C1.62525563,7.71225677 1.19851253,6.64614541 1.19851253,5.38440082 C1.19851253,4.12265622 1.62525563,3.05654486 2.48237368,2.18786153 C3.34130767,1.3173834 4.40544152,0.883041734 5.68203896,0.883041734 C6.94410898,0.883041734 8.00824283,1.3173834 8.86717681,2.19504073 C9.73155858,3.07090326 10.1583017,4.12983543 10.1583017,5.38440082 C10.1583017,6.64614541 9.73155858,7.71225677 8.87444053,8.5809401 L8.87444053,8.5809401 Z M3.31225282,7.85943039 C3.95872321,8.50376369 4.74502007,8.82682774 5.68203896,8.82682774 C6.61179414,8.82682774 7.40535471,8.50376369 8.04456139,7.85943039 C8.68921586,7.21509709 9.01608292,6.38769417 9.01608292,5.38440082 C9.01608292,4.38110746 8.68921586,3.55370454 8.04456139,2.90937124 C7.40535471,2.26503794 6.61179414,1.94197389 5.68203896,1.94197389 C4.74502007,1.94197389 3.95872321,2.26503794 3.31225282,2.90937124 C2.66759835,3.55370454 2.34073129,4.38110746 2.34073129,5.38440082 C2.34073129,6.38769417 2.66759835,7.21509709 3.31225282,7.85943039 L3.31225282,7.85943039 Z" id="path40"></path>
                                </g>
                                <g id="g42" transform="translate(113.530176, 44.390130) scale(1, -1) translate(-113.530176, -44.390130) translate(108.990356, 39.005730)" stroke-width="0.625" stroke="#FFFFFF" fill="#FFFFFF">
                                    <polygon id="path44" points="0.837142845 9.68833187 0.837142845 1.08046976 2.1990889 1.08046976 6.43383319 7.77507478 6.48286324 7.77507478 6.43383319 6.12026893 6.43383319 1.08046976 7.55426081 1.08046976 7.55426081 9.68833187 6.38480313 9.68833187 1.95030676 2.6634836 1.9012767 2.6634836 1.95030676 4.32546865 1.95030676 9.68833187 0.837142845 9.68833187"></polygon>
                                </g>
                                <path d="M99.0172788,27.5154183 C95.6051499,27.5154183 92.8177003,24.9488539 92.8177003,21.407713 C92.8177003,17.8952888 95.6051499,15.3018024 99.0172788,15.3018024 C102.436671,15.3018024 105.224121,17.8952888 105.224121,21.407713 C105.224121,24.9488539 102.436671,27.5154183 99.0172788,27.5154183 L99.0172788,27.5154183 Z M99.0172788,17.7068348 C97.1450569,17.7068348 95.5343287,19.2342098 95.5343287,21.407713 C95.5343287,23.6099329 97.1450569,25.1103859 99.0172788,25.1103859 C100.889501,25.1103859 102.507493,23.6099329 102.507493,21.407713 C102.507493,19.2342098 100.889501,17.7068348 99.0172788,17.7068348 L99.0172788,17.7068348 Z M85.4904305,27.5154183 C82.0710379,27.5154183 79.2908521,24.9488539 79.2908521,21.407713 C79.2908521,17.8952888 82.0710379,15.3018024 85.4904305,15.3018024 C88.9080072,15.3018024 91.690009,17.8952888 91.690009,21.407713 C91.690009,24.9488539 88.9080072,27.5154183 85.4904305,27.5154183 L85.4904305,27.5154183 Z M85.4904305,17.7068348 C83.6163927,17.7068348 82.0002167,19.2342098 82.0002167,21.407713 C82.0002167,23.6099329 83.6163927,25.1103859 85.4904305,25.1103859 C87.3626524,25.1103859 88.9733806,23.6099329 88.9733806,21.407713 C88.9733806,19.2342098 87.3626524,17.7068348 85.4904305,17.7068348 L85.4904305,17.7068348 Z M69.394044,25.6434416 L69.394044,23.0481604 L75.6644437,23.0481604 C75.4810349,21.5979618 74.9907344,20.5318504 74.2389401,19.7888031 C73.3237124,18.891403 71.8982088,17.8952888 69.394044,17.8952888 C65.5351968,17.8952888 62.5134925,20.9733713 62.5134925,24.7873219 C62.5134925,28.6012724 65.5351968,31.6793549 69.394044,31.6793549 C71.4805454,31.6793549 72.9986613,30.8734896 74.1190889,29.8289158 L75.9695196,31.6578173 C74.4023737,33.1367327 72.3176882,34.2728413 69.394044,34.2728413 C64.1024296,34.2728413 59.6552217,30.0173699 59.6552217,24.7873219 C59.6552217,19.5572739 64.1024296,15.3018024 69.394044,15.3018024 C72.2541307,15.3018024 74.4023737,16.2279194 76.0911868,17.965286 C77.8217662,19.6757307 78.3610969,22.0807631 78.3610969,24.022737 C78.3610969,24.6257898 78.3102509,25.1803831 78.2194545,25.6434416 L69.394044,25.6434416 L69.394044,25.6434416 Z M135.214173,23.6314705 C134.703897,24.9973135 133.129488,27.5154183 129.922559,27.5154183 C126.744685,27.5154183 124.098877,25.0403887 124.098877,21.407713 C124.098877,17.9868236 126.717446,15.3018024 130.227635,15.3018024 C133.06593,15.3018024 134.703897,17.0122471 135.377607,18.0083612 L133.27113,19.3957419 C132.568366,18.3798849 131.611372,17.7068348 130.227635,17.7068348 C128.852977,17.7068348 127.866928,18.3296305 127.234985,19.5572739 L135.499274,22.9368828 L135.214173,23.6314705 L135.214173,23.6314705 Z M126.788267,21.5979618 C126.717446,23.9527397 128.638698,25.1588455 130.015171,25.1588455 C131.093832,25.1588455 132.00906,24.6257898 132.314136,23.8629997 L126.788267,21.5979618 L126.788267,21.5979618 Z M120.071149,15.6733261 L122.787777,15.6733261 L122.787777,33.6213288 L120.071149,33.6213288 L120.071149,15.6733261 L120.071149,15.6733261 Z M115.622125,26.1549597 L115.531329,26.1549597 C114.921177,26.8692902 113.757167,27.5154183 112.282633,27.5154183 C109.188292,27.5154183 106.359076,24.8303971 106.359076,21.3879702 C106.359076,17.965286 109.188292,15.3018024 112.282633,15.3018024 C113.757167,15.3018024 114.921177,15.9533149 115.531329,16.689183 L115.622125,16.689183 L115.622125,15.8133205 C115.622125,13.4782854 114.360055,12.22372 112.3244,12.22372 C110.664641,12.22372 109.63501,13.4082881 109.210083,14.4044023 L106.847561,13.4298257 C107.528534,11.8109159 109.33175,9.8186876 112.3244,9.8186876 C115.509538,9.8186876 118.197111,11.6709215 118.197111,16.177665 L118.197111,27.1438946 L115.622125,27.1438946 L115.622125,26.1549597 L115.622125,26.1549597 Z M112.515072,17.7068348 C110.64285,17.7068348 109.075704,19.2557474 109.075704,21.3879702 C109.075704,23.5399357 110.64285,25.1103859 112.515072,25.1103859 C114.360055,25.1103859 115.814614,23.5399357 115.814614,21.3879702 C115.814614,19.2557474 114.360055,17.7068348 112.515072,17.7068348 L112.515072,17.7068348 Z M147.932933,33.6213288 L141.435543,33.6213288 L141.435543,15.6733261 L144.144907,15.6733261 L144.144907,22.4738243 L147.932933,22.4738243 C150.941926,22.4738243 153.892809,24.6257898 153.892809,28.048474 C153.892809,31.4693633 150.934663,33.6213288 147.932933,33.6213288 L147.932933,33.6213288 Z M148.003755,24.9703915 L144.144907,24.9703915 L144.144907,31.1247616 L148.003755,31.1247616 C150.026699,31.1247616 151.181629,29.4645714 151.181629,28.048474 C151.181629,26.6592986 150.026699,24.9703915 148.003755,24.9703915 L148.003755,24.9703915 Z M164.752059,27.5495195 C162.794489,27.5495195 160.758833,26.6951946 159.921691,24.8016803 L162.325979,23.8055661 C162.843519,24.8016803 163.795065,25.1247443 164.801089,25.1247443 C166.206618,25.1247443 167.632121,24.2901622 167.653912,22.8166312 L167.653912,22.6281771 C167.163612,22.908166 166.114005,23.3227648 164.822881,23.3227648 C162.233367,23.3227648 159.594824,21.9138466 159.594824,19.2844642 C159.594824,16.8794319 161.715828,15.3305192 164.100141,15.3305192 C165.923333,15.3305192 166.929357,16.1435638 167.5613,17.0894235 L167.653912,17.0894235 L167.653912,15.7020429 L170.270665,15.7020429 L170.270665,22.5868967 C170.270665,25.7690776 167.866376,27.5495195 164.752059,27.5495195 L164.752059,27.5495195 Z M164.425192,17.714014 C163.539019,17.714014 162.304188,18.1483557 162.304188,19.2342098 C162.304188,20.6233852 163.844095,21.1564409 165.176987,21.1564409 C166.370051,21.1564409 166.929357,20.8961949 167.653912,20.553388 C167.441449,18.891403 165.994154,17.714014 164.425192,17.714014 L164.425192,17.714014 Z M179.804287,27.1564582 L176.689971,19.375999 L176.597358,19.375999 L173.377718,27.1564582 L170.455889,27.1564582 L175.293522,16.2835582 L172.533311,10.2332865 L175.364343,10.2332865 L182.818728,27.1564582 L179.804287,27.1564582 L179.804287,27.1564582 Z M155.38187,15.6733261 L158.098499,15.6733261 L158.098499,33.6213288 L155.38187,33.6213288 L155.38187,15.6733261 L155.38187,15.6733261 Z" id="path46" fill="#FFFFFF"></path>
                                <g id="g48" transform="translate(12.746168, 10.288925)" fill="url(#linearGradient-1)">
                                    <path d="M2.44787105,37.6351669 C2.02112795,37.193646 1.77416173,36.5062375 1.77416173,35.6160166 L1.77416173,3.86241018 C1.77416173,2.97218925 2.02112795,2.28478075 2.44787105,1.84325988 L2.55319488,1.74634066 L20.5563059,19.5328114 L20.5563059,19.9527946 L2.55319488,37.7392653 L2.44787105,37.6351669 L2.44787105,37.6351669 Z" id="path64"></path>
                                </g>
                                <g id="g66" transform="translate(32.721376, 22.852527)" fill="url(#linearGradient-2)">
                                    <path d="M6.57547558,1.03739456 L0.581096986,6.96920946 L0.581096986,7.38919272 L6.58273929,13.3210076 L6.71711797,13.2438312 L13.8246605,9.246811 C15.8530521,8.11249723 15.8530521,6.24590495 13.8246605,5.10441197 L6.71711797,1.11457097 L6.57547558,1.03739456 L6.57547558,1.03739456 Z" id="path78"></path>
                                </g>
                                <g id="g80" transform="translate(14.562096, 10.288925)" fill="url(#linearGradient-3)">
                                    <path d="M24.8763988,13.6781729 L18.7403778,19.742803 L0.631942972,1.84325988 C1.30565229,1.14328777 2.40428878,1.05893216 3.6536473,1.75890427 L24.8763988,13.6781729" id="path88"></path>
                                </g>
                                <g id="g90" transform="translate(14.562096, 30.031728)" fill="url(#linearGradient-4)">
                                    <path d="M24.8763988,6.06463012 L3.6536473,17.9838987 C2.40428878,18.6766916 1.30565229,18.592336 0.631942972,17.8923639 L18.7403778,0 L24.8763988,6.06463012 L24.8763988,6.06463012 Z" id="path104"></path>
                                </g>
                            </g>
                        </g>
                    </g>
                </g>
            </g>
        </g>
    </g>
</svg>