<?xml version="1.0" encoding="UTF-8"?>
<svg width="198px" height="57px" viewBox="0 0 198 57" version="1.1" xmlns="http://www.w3.org/2000/svg" xmlns:xlink="http://www.w3.org/1999/xlink">
    <!-- Generator: Sketch 40.3 (33839) - http://www.bohemiancoding.com/sketch -->
    <title>Download_on_the_App_Store_Badge_US-UK_135x40</title>
    <desc>Created with Sketch.</desc>
    <defs></defs>
    <g id="SHIP-SHIT" stroke="none" stroke-width="1" fill="none" fill-rule="evenodd">
        <g id="Homepage" transform="translate(-692.000000, -2448.000000)">
            <g id="Get-the-app-" transform="translate(691.000000, 2261.000000)">
                <g id="Download_on_the_App_Store_Badge_US-UK_135x40" transform="translate(0.000000, 186.000000)">
                    <g id="US_UK_Download_on_the">
                        <g id="Group">
                            <path d="M198.565926,52.2488889 C198.565926,55.3837037 196.026667,57.922963 192.885926,57.922963 L7.00592593,57.922963 C3.86666667,57.922963 1.31851852,55.3837037 1.31851852,52.2488889 L1.31851852,7 C1.31851852,3.86666667 3.86666667,1.31851852 7.00592593,1.31851852 L192.884444,1.31851852 C196.026667,1.31851852 198.564444,3.86666667 198.564444,7 L198.565926,52.2488889 L198.565926,52.2488889 L198.565926,52.2488889 Z" id="Shape" fill="#000000"></path>
                            <g transform="translate(17.777778, 8.888889)" id="Shape" fill="#FFFFFF">
                                <path d="M26.8562963,20.4207407 C26.8133333,15.6459259 30.7659259,13.322963 30.9466667,13.2148148 C28.7081481,9.95111111 25.2385185,9.50518519 24.0192593,9.46962963 C21.1051852,9.16296296 18.2785185,11.2133333 16.7940741,11.2133333 C15.28,11.2133333 12.9940741,9.49925926 10.5303704,9.54962963 C7.36,9.59851852 4.39407407,11.4340741 2.76740741,14.2844444 C-0.58962963,20.0962963 1.91407407,28.637037 5.13037037,33.3348148 C6.73925926,35.6355556 8.61925926,38.2044444 11.08,38.1140741 C13.4874074,38.0148148 14.3866667,36.5792593 17.2918519,36.5792593 C20.1703704,36.5792593 21.0148148,38.1140741 23.5244444,38.0562963 C26.1081481,38.0148148 27.7348148,35.7451852 29.2874074,33.4237037 C31.1466667,30.7866667 31.8933333,28.1896296 31.922963,28.0562963 C31.8622222,28.0355556 26.9051852,26.1437037 26.8562963,20.4207407 L26.8562963,20.4207407 Z"></path>
                                <path d="M22.1155556,6.37925926 C23.4103704,4.76 24.2962963,2.55703704 24.0503704,0.321481481 C22.1762963,0.404444444 19.8325926,1.61777778 18.482963,3.20148148 C17.2888889,4.59703704 16.2222222,6.88444444 16.4977778,9.03555556 C18.602963,9.19259259 20.7644444,7.97333333 22.1155556,6.37925926 L22.1155556,6.37925926 Z"></path>
                            </g>
                            <g transform="translate(62.222222, 26.666667)" id="Shape" fill="#FFFFFF">
                                <path d="M17.2518519,20.0059259 L13.8874074,20.0059259 L12.0444444,14.2148148 L5.63851852,14.2148148 L3.88296296,20.0059259 L0.607407407,20.0059259 L6.95407407,0.29037037 L10.8740741,0.29037037 L17.2518519,20.0059259 L17.2518519,20.0059259 Z M11.4888889,11.7851852 L9.82222222,6.63703704 C9.64592593,6.11111111 9.31555556,4.87259259 8.82814815,2.92296296 L8.76888889,2.92296296 C8.57481481,3.76148148 8.26222222,5 7.83259259,6.63703704 L6.19555556,11.7851852 L11.4888889,11.7851852 L11.4888889,11.7851852 Z"></path>
                                <path d="M33.5733333,12.722963 C33.5733333,15.1407407 32.92,17.0518519 31.6133333,18.4548148 C30.442963,19.7037037 28.9896296,20.3274074 27.2548148,20.3274074 C25.3822222,20.3274074 24.037037,19.6548148 23.2177778,18.3096296 L23.1585185,18.3096296 L23.1585185,25.7985185 L20,25.7985185 L20,10.4696296 C20,8.94962963 19.96,7.38962963 19.882963,5.78962963 L22.6607407,5.78962963 L22.837037,8.04296296 L22.8962963,8.04296296 C23.9496296,6.34518519 25.5481481,5.49777778 27.6933333,5.49777778 C29.3703704,5.49777778 30.7703704,6.16 31.8903704,7.48592593 C33.0133333,8.81333333 33.5733333,10.5585185 33.5733333,12.722963 L33.5733333,12.722963 Z M30.3555556,12.8385185 C30.3555556,11.4548148 30.0444444,10.3140741 29.4192593,9.4162963 C28.7362963,8.48 27.8192593,8.01185185 26.6696296,8.01185185 C25.8903704,8.01185185 25.1822222,8.27259259 24.5496296,8.78666667 C23.9155556,9.30518519 23.5007407,9.98222222 23.3066667,10.8207407 C23.2088889,11.2118519 23.16,11.5318519 23.16,11.7837037 L23.16,14.1540741 C23.16,15.1881481 23.477037,16.0607407 24.1111111,16.7733333 C24.7451852,17.4859259 25.5688889,17.8414815 26.5822222,17.8414815 C27.7718519,17.8414815 28.6977778,17.3822222 29.36,16.4666667 C30.0237037,15.5496296 30.3555556,14.3407407 30.3555556,12.8385185 L30.3555556,12.8385185 Z"></path>
                                <path d="M49.9244444,12.722963 C49.9244444,15.1407407 49.2711111,17.0518519 47.962963,18.4548148 C46.7940741,19.7037037 45.3407407,20.3274074 43.6059259,20.3274074 C41.7333333,20.3274074 40.3881481,19.6548148 39.5703704,18.3096296 L39.5111111,18.3096296 L39.5111111,25.7985185 L36.3525926,25.7985185 L36.3525926,10.4696296 C36.3525926,8.94962963 36.3125926,7.38962963 36.2355556,5.78962963 L39.0133333,5.78962963 L39.1896296,8.04296296 L39.2488889,8.04296296 C40.3007407,6.34518519 41.8992593,5.49777778 44.0459259,5.49777778 C45.7214815,5.49777778 47.1214815,6.16 48.2444444,7.48592593 C49.362963,8.81333333 49.9244444,10.5585185 49.9244444,12.722963 L49.9244444,12.722963 Z M46.7066667,12.8385185 C46.7066667,11.4548148 46.3940741,10.3140741 45.7688889,9.4162963 C45.0859259,8.48 44.1718519,8.01185185 43.0207407,8.01185185 C42.24,8.01185185 41.5333333,8.27259259 40.8992593,8.78666667 C40.2651852,9.30518519 39.8518519,9.98222222 39.6577778,10.8207407 C39.5614815,11.2118519 39.5111111,11.5318519 39.5111111,11.7837037 L39.5111111,14.1540741 C39.5111111,15.1881481 39.8281481,16.0607407 40.4592593,16.7733333 C41.0933333,17.4844444 41.917037,17.8414815 42.9333333,17.8414815 C44.122963,17.8414815 45.0488889,17.3822222 45.7111111,16.4666667 C46.3748148,15.5496296 46.7066667,14.3407407 46.7066667,12.8385185 L46.7066667,12.8385185 Z"></path>
                                <path d="M68.2059259,14.477037 C68.2059259,16.1540741 67.6237037,17.5185185 66.4548148,18.5718519 C65.1703704,19.722963 63.3822222,20.2977778 61.0844444,20.2977778 C58.962963,20.2977778 57.2622222,19.8888889 55.9748148,19.0696296 L56.7066667,16.437037 C58.0933333,17.2755556 59.6148148,17.6962963 61.2725926,17.6962963 C62.4622222,17.6962963 63.3881481,17.4266667 64.0533333,16.8903704 C64.7155556,16.3540741 65.0459259,15.6340741 65.0459259,14.7362963 C65.0459259,13.9362963 64.7733333,13.2622222 64.2266667,12.7155556 C63.682963,12.1688889 62.7748148,11.6607407 61.5066667,11.1911111 C58.0548148,9.9037037 56.3303704,8.01777778 56.3303704,5.53777778 C56.3303704,3.91703704 56.9348148,2.58814815 58.1451852,1.55407407 C59.3511111,0.518518519 60.96,0.00148148148 62.9718519,0.00148148148 C64.7659259,0.00148148148 66.2562963,0.314074074 67.4459259,0.937777778 L66.6562963,3.51259259 C65.5451852,2.90814815 64.2888889,2.60592593 62.882963,2.60592593 C61.7718519,2.60592593 60.9037037,2.88 60.2814815,3.42518519 C59.7555556,3.91259259 59.4918519,4.50666667 59.4918519,5.21037037 C59.4918519,5.98962963 59.7925926,6.63407407 60.397037,7.14074074 C60.922963,7.60888889 61.8785185,8.11555556 63.2651852,8.66222222 C64.9614815,9.34518519 66.2074074,10.1437037 67.0088889,11.0592593 C67.8074074,11.9718519 68.2059259,13.1140741 68.2059259,14.477037 L68.2059259,14.477037 Z"></path>
                                <path d="M78.6488889,8.16 L75.1674074,8.16 L75.1674074,15.0622222 C75.1674074,16.8177778 75.7807407,17.6948148 77.0103704,17.6948148 C77.5748148,17.6948148 78.042963,17.6459259 78.4133333,17.5481481 L78.5007407,19.9466667 C77.8785185,20.1792593 77.0592593,20.2962963 76.0444444,20.2962963 C74.797037,20.2962963 73.8222222,19.9155556 73.1185185,19.1555556 C72.4177778,18.3940741 72.0651852,17.117037 72.0651852,15.322963 L72.0651852,8.15703704 L69.9911111,8.15703704 L69.9911111,5.78666667 L72.0651852,5.78666667 L72.0651852,3.1837037 L75.1674074,2.24740741 L75.1674074,5.78666667 L78.6488889,5.78666667 L78.6488889,8.16 L78.6488889,8.16 Z"></path>
                                <path d="M94.357037,12.7807407 C94.357037,14.9659259 93.7318519,16.76 92.4844444,18.162963 C91.1762963,19.6074074 89.44,20.3274074 87.2755556,20.3274074 C85.1896296,20.3274074 83.5288889,19.6355556 82.2903704,18.2518519 C81.0518519,16.8681481 80.4325926,15.1214815 80.4325926,13.0162963 C80.4325926,10.8133333 81.0696296,9.00888889 82.3481481,7.60592593 C83.6237037,6.20148148 85.3451852,5.49925926 87.5096296,5.49925926 C89.5955556,5.49925926 91.2740741,6.19111111 92.5407407,7.5762963 C93.7525926,8.92 94.357037,10.6548148 94.357037,12.7807407 L94.357037,12.7807407 Z M91.08,12.882963 C91.08,11.5718519 90.8,10.4474074 90.2325926,9.50962963 C89.5703704,8.37481481 88.6237037,7.80888889 87.397037,7.80888889 C86.1274074,7.80888889 85.162963,8.3762963 84.5007407,9.50962963 C83.9333333,10.4488889 83.6533333,11.5911111 83.6533333,12.9422222 C83.6533333,14.2533333 83.9333333,15.3777778 84.5007407,16.3140741 C85.1837037,17.4488889 86.1377778,18.0148148 87.3688889,18.0148148 C88.5748148,18.0148148 89.5214815,17.437037 90.2044444,16.2844444 C90.7866667,15.3288889 91.08,14.1925926 91.08,12.882963 L91.08,12.882963 Z"></path>
                                <path d="M104.623704,8.56740741 C104.311111,8.50962963 103.977778,8.48 103.628148,8.48 C102.517037,8.48 101.657778,8.89925926 101.053333,9.73925926 C100.527407,10.48 100.263704,11.4162963 100.263704,12.5466667 L100.263704,20.0059259 L97.1066667,20.0059259 L97.1362963,10.2666667 C97.1362963,8.62814815 97.0962963,7.1362963 97.0177778,5.79111111 L99.7688889,5.79111111 L99.8844444,8.51111111 L99.9718519,8.51111111 C100.305185,7.5762963 100.831111,6.8237037 101.551111,6.25925926 C102.254815,5.75111111 103.014815,5.49777778 103.834074,5.49777778 C104.125926,5.49777778 104.38963,5.51851852 104.623704,5.55555556 L104.623704,8.56740741 L104.623704,8.56740741 Z"></path>
                                <path d="M118.74963,12.2251852 C118.74963,12.7911111 118.712593,13.2681481 118.634074,13.6577778 L109.158519,13.6577778 C109.195556,15.0622222 109.653333,16.1362963 110.533333,16.877037 C111.331852,17.5392593 112.364444,17.8711111 113.632593,17.8711111 C115.035556,17.8711111 116.315556,17.6474074 117.466667,17.1985185 L117.961481,19.3911111 C116.616296,19.9777778 115.028148,20.2696296 113.195556,20.2696296 C110.991111,20.2696296 109.260741,19.6207407 108.001481,18.3244444 C106.745185,17.0281481 106.115556,15.2874074 106.115556,13.1037037 C106.115556,10.96 106.700741,9.17481481 107.872593,7.75111111 C109.099259,6.23111111 110.757037,5.47111111 112.842963,5.47111111 C114.891852,5.47111111 116.442963,6.23111111 117.496296,7.75111111 C118.33037,8.95851852 118.74963,10.4518519 118.74963,12.2251852 L118.74963,12.2251852 Z M115.737778,11.4059259 C115.758519,10.4696296 115.552593,9.66074074 115.124444,8.97777778 C114.577778,8.09925926 113.737778,7.66074074 112.607407,7.66074074 C111.574815,7.66074074 110.734815,8.08888889 110.093333,8.94814815 C109.567407,9.63111111 109.254815,10.4503704 109.158519,11.4044444 L115.737778,11.4044444 L115.737778,11.4059259 Z"></path>
                            </g>
                            <g transform="translate(63.703704, 8.888889)" id="Shape" fill="#FFFFFF">
                                <path d="M8.96296296,5.93925926 C8.96296296,7.68296296 8.44,8.99555556 7.39555556,9.87703704 C6.42814815,10.6903704 5.05333333,11.0977778 3.27259259,11.0977778 C2.38962963,11.0977778 1.63407407,11.0592593 1.00148148,10.9822222 L1.00148148,1.45481481 C1.82666667,1.32148148 2.71555556,1.25333333 3.67555556,1.25333333 C5.37185185,1.25333333 6.65037037,1.62222222 7.51259259,2.36 C8.47851852,3.19407407 8.96296296,4.38666667 8.96296296,5.93925926 L8.96296296,5.93925926 Z M7.32592593,5.98222222 C7.32592593,4.85185185 7.02666667,3.98518519 6.42814815,3.38074074 C5.82962963,2.77777778 4.95555556,2.47555556 3.80444444,2.47555556 C3.31555556,2.47555556 2.89925926,2.50814815 2.55407407,2.5762963 L2.55407407,9.81925926 C2.74518519,9.84888889 3.09481481,9.86222222 3.60296296,9.86222222 C4.79111111,9.86222222 5.70814815,9.53185185 6.35407407,8.87111111 C7,8.21037037 7.32592593,7.24740741 7.32592593,5.98222222 L7.32592593,5.98222222 Z"></path>
                                <path d="M17.642963,7.46222222 C17.642963,8.5362963 17.3362963,9.4162963 16.722963,10.1066667 C16.08,10.8162963 15.2281481,11.1703704 14.1644444,11.1703704 C13.1392593,11.1703704 12.322963,10.8311111 11.7140741,10.1496296 C11.1066667,9.46962963 10.802963,8.61185185 10.802963,7.57777778 C10.802963,6.4962963 11.1155556,5.60888889 11.7437037,4.92 C12.3718519,4.23111111 13.2162963,3.88592593 14.28,3.88592593 C15.3051852,3.88592593 16.1288889,4.22518519 16.7525926,4.90518519 C17.3451852,5.56592593 17.642963,6.41925926 17.642963,7.46222222 L17.642963,7.46222222 Z M16.0325926,7.51259259 C16.0325926,6.86814815 15.8933333,6.31555556 15.6162963,5.85481481 C15.2903704,5.29777778 14.8266667,5.01925926 14.2237037,5.01925926 C13.6,5.01925926 13.1259259,5.29777778 12.8,5.85481481 C12.5214815,6.31555556 12.3837037,6.87703704 12.3837037,7.54074074 C12.3837037,8.18518519 12.522963,8.73777778 12.8,9.19851852 C13.1362963,9.75555556 13.6044444,10.0340741 14.2088889,10.0340741 C14.8014815,10.0340741 15.2666667,9.75111111 15.6014815,9.1837037 C15.8888889,8.71407407 16.0325926,8.15703704 16.0325926,7.51259259 L16.0325926,7.51259259 Z"></path>
                                <path d="M29.2814815,4.02814815 L27.0962963,11.0118519 L25.6740741,11.0118519 L24.7688889,7.97925926 C24.5392593,7.22222222 24.3525926,6.46962963 24.2074074,5.72296296 L24.1792593,5.72296296 C24.0444444,6.49037037 23.8577778,7.24148148 23.6177778,7.97925926 L22.6562963,11.0118519 L21.2177778,11.0118519 L19.162963,4.02814815 L20.7585185,4.02814815 L21.5481481,7.34814815 C21.7392593,8.13333333 21.8962963,8.88148148 22.0222222,9.58962963 L22.0503704,9.58962963 C22.1659259,9.00592593 22.357037,8.26222222 22.6266667,7.36296296 L23.6177778,4.02962963 L24.882963,4.02962963 L25.8325926,7.29185185 C26.0622222,8.08740741 26.2488889,8.85333333 26.3925926,9.59111111 L26.4355556,9.59111111 C26.5407407,8.87259259 26.6992593,8.10666667 26.9096296,7.29185185 L27.757037,4.02962963 L29.2814815,4.02962963 L29.2814815,4.02814815 Z"></path>
                                <path d="M37.3303704,11.0118519 L35.7777778,11.0118519 L35.7777778,7.01185185 C35.7777778,5.77925926 35.3096296,5.16296296 34.3703704,5.16296296 C33.9096296,5.16296296 33.5377778,5.33185185 33.2488889,5.67111111 C32.962963,6.01037037 32.8177778,6.41037037 32.8177778,6.86814815 L32.8177778,11.0103704 L31.2651852,11.0103704 L31.2651852,6.0237037 C31.2651852,5.41037037 31.2459259,4.74518519 31.2088889,4.02518519 L32.5733333,4.02518519 L32.6459259,5.11703704 L32.6888889,5.11703704 C32.8696296,4.77777778 33.1392593,4.49777778 33.4933333,4.27407407 C33.9140741,4.01333333 34.3851852,3.88148148 34.9007407,3.88148148 C35.5525926,3.88148148 36.0948148,4.09185185 36.5259259,4.51407407 C37.0622222,5.03111111 37.3303704,5.80296296 37.3303704,6.82814815 L37.3303704,11.0118519 L37.3303704,11.0118519 Z"></path>
                                <polygon points="41.6118519 11.0118519 40.0607407 11.0118519 40.0607407 0.823703704 41.6118519 0.823703704"></polygon>
                                <path d="M50.7525926,7.46222222 C50.7525926,8.5362963 50.4459259,9.4162963 49.8325926,10.1066667 C49.1896296,10.8162963 48.3362963,11.1703704 47.2740741,11.1703704 C46.2474074,11.1703704 45.4311111,10.8311111 44.8237037,10.1496296 C44.2162963,9.46962963 43.9125926,8.61185185 43.9125926,7.57777778 C43.9125926,6.4962963 44.2251852,5.60888889 44.8533333,4.92 C45.4814815,4.23111111 46.3259259,3.88592593 47.3881481,3.88592593 C48.4148148,3.88592593 49.237037,4.22518519 49.8622222,4.90518519 C50.4548148,5.56592593 50.7525926,6.41925926 50.7525926,7.46222222 L50.7525926,7.46222222 Z M49.1407407,7.51259259 C49.1407407,6.86814815 49.0014815,6.31555556 48.7244444,5.85481481 C48.4,5.29777778 47.9348148,5.01925926 47.3333333,5.01925926 C46.7081481,5.01925926 46.2340741,5.29777778 45.9096296,5.85481481 C45.6311111,6.31555556 45.4933333,6.87703704 45.4933333,7.54074074 C45.4933333,8.18518519 45.6325926,8.73777778 45.9096296,9.19851852 C46.2459259,9.75555556 46.7140741,10.0340741 47.3185185,10.0340741 C47.9111111,10.0340741 48.3748148,9.75111111 48.7096296,9.1837037 C48.9985185,8.71407407 49.1407407,8.15703704 49.1407407,7.51259259 L49.1407407,7.51259259 Z"></path>
                                <path d="M58.2666667,11.0118519 L56.8725926,11.0118519 L56.757037,10.2074074 L56.7140741,10.2074074 C56.237037,10.8488889 55.557037,11.1703704 54.6740741,11.1703704 C54.0148148,11.1703704 53.4814815,10.9585185 53.08,10.5377778 C52.7155556,10.1555556 52.5333333,9.68 52.5333333,9.11555556 C52.5333333,8.26222222 52.8888889,7.61185185 53.6044444,7.16148148 C54.3185185,6.71111111 55.322963,6.49037037 56.6162963,6.50074074 L56.6162963,6.37037037 C56.6162963,5.45037037 56.1333333,4.99111111 55.1659259,4.99111111 C54.477037,4.99111111 53.8696296,5.16444444 53.3451852,5.50814815 L53.0296296,4.48888889 C53.6785185,4.08740741 54.48,3.88592593 55.4251852,3.88592593 C57.2503704,3.88592593 58.1659259,4.84888889 58.1659259,6.77481481 L58.1659259,9.34666667 C58.1659259,10.0444444 58.2,10.6 58.2666667,11.0118519 L58.2666667,11.0118519 Z M56.6548148,8.61185185 L56.6548148,7.53481481 C54.9422222,7.50518519 54.0859259,7.97481481 54.0859259,8.94222222 C54.0859259,9.30666667 54.1837037,9.57925926 54.3837037,9.76148148 C54.5837037,9.9437037 54.8385185,10.0340741 55.1422222,10.0340741 C55.482963,10.0340741 55.8014815,9.92592593 56.0918519,9.71111111 C56.3837037,9.49481481 56.562963,9.22074074 56.6296296,8.88444444 C56.6459259,8.80888889 56.6548148,8.71703704 56.6548148,8.61185185 L56.6548148,8.61185185 Z"></path>
                                <path d="M67.0888889,11.0118519 L65.7111111,11.0118519 L65.6385185,9.89037037 L65.5955556,9.89037037 C65.1555556,10.7437037 64.4059259,11.1703704 63.3525926,11.1703704 C62.5111111,11.1703704 61.8103704,10.84 61.2548148,10.1792593 C60.6992593,9.51851852 60.4222222,8.66074074 60.4222222,7.60740741 C60.4222222,6.47703704 60.722963,5.56148148 61.3274074,4.86222222 C61.9125926,4.21037037 62.6296296,3.88444444 63.482963,3.88444444 C64.4207407,3.88444444 65.077037,4.2 65.4503704,4.83259259 L65.48,4.83259259 L65.48,0.823703704 L67.0340741,0.823703704 L67.0340741,9.13037037 C67.0340741,9.81037037 67.0518519,10.437037 67.0888889,11.0118519 L67.0888889,11.0118519 Z M65.48,8.06666667 L65.48,6.90222222 C65.48,6.70074074 65.4651852,6.53777778 65.437037,6.41333333 C65.3496296,6.04 65.1614815,5.72592593 64.8755556,5.47259259 C64.5866667,5.21925926 64.2385185,5.09185185 63.837037,5.09185185 C63.2577778,5.09185185 62.8044444,5.32148148 62.4711111,5.78222222 C62.1407407,6.24296296 61.9733333,6.83111111 61.9733333,7.54962963 C61.9733333,8.24 62.1318519,8.8 62.4503704,9.23111111 C62.7866667,9.69037037 63.24,9.92 63.8074074,9.92 C64.317037,9.92 64.7244444,9.72888889 65.0340741,9.34518519 C65.3333333,8.99111111 65.48,8.56444444 65.48,8.06666667 L65.48,8.06666667 Z"></path>
                                <path d="M80.3674074,7.46222222 C80.3674074,8.5362963 80.0607407,9.4162963 79.4474074,10.1066667 C78.8044444,10.8162963 77.9540741,11.1703704 76.8888889,11.1703704 C75.8651852,11.1703704 75.0488889,10.8311111 74.4385185,10.1496296 C73.8311111,9.46962963 73.5274074,8.61185185 73.5274074,7.57777778 C73.5274074,6.4962963 73.84,5.60888889 74.4681481,4.92 C75.0962963,4.23111111 75.9407407,3.88592593 77.0059259,3.88592593 C78.0296296,3.88592593 78.8548148,4.22518519 79.477037,4.90518519 C80.0696296,5.56592593 80.3674074,6.41925926 80.3674074,7.46222222 L80.3674074,7.46222222 Z M78.7585185,7.51259259 C78.7585185,6.86814815 78.6192593,6.31555556 78.3422222,5.85481481 C78.0148148,5.29777778 77.5525926,5.01925926 76.9481481,5.01925926 C76.3259259,5.01925926 75.8518519,5.29777778 75.5244444,5.85481481 C75.2459259,6.31555556 75.1081481,6.87703704 75.1081481,7.54074074 C75.1081481,8.18518519 75.2474074,8.73777778 75.5244444,9.19851852 C75.8607407,9.75555556 76.3288889,10.0340741 76.9333333,10.0340741 C77.5259259,10.0340741 77.9925926,9.75111111 78.3274074,9.1837037 C78.6133333,8.71407407 78.7585185,8.15703704 78.7585185,7.51259259 L78.7585185,7.51259259 Z"></path>
                                <path d="M88.7155556,11.0118519 L87.1644444,11.0118519 L87.1644444,7.01185185 C87.1644444,5.77925926 86.6962963,5.16296296 85.7555556,5.16296296 C85.2948148,5.16296296 84.922963,5.33185185 84.6355556,5.67111111 C84.3481481,6.01037037 84.2044444,6.41037037 84.2044444,6.86814815 L84.2044444,11.0103704 L82.6503704,11.0103704 L82.6503704,6.0237037 C82.6503704,5.41037037 82.6325926,4.74518519 82.5955556,4.02518519 L83.9585185,4.02518519 L84.0311111,5.11703704 L84.0740741,5.11703704 C84.2562963,4.77777778 84.5259259,4.49777778 84.8785185,4.27407407 C85.3007407,4.01333333 85.7703704,3.88148148 86.2874074,3.88148148 C86.9377778,3.88148148 87.48,4.09185185 87.9111111,4.51407407 C88.4488889,5.03111111 88.7155556,5.80296296 88.7155556,6.82814815 L88.7155556,11.0118519 L88.7155556,11.0118519 Z"></path>
                                <path d="M99.1644444,5.19111111 L97.4548148,5.19111111 L97.4548148,8.5837037 C97.4548148,9.44592593 97.7585185,9.87703704 98.36,9.87703704 C98.6385185,9.87703704 98.8696296,9.85333333 99.0518519,9.80444444 L99.0918519,10.9822222 C98.7851852,11.0977778 98.3822222,11.1555556 97.8859259,11.1555556 C97.2725926,11.1555556 96.7955556,10.9688889 96.4503704,10.5955556 C96.1037037,10.2222222 95.9318519,9.59407407 95.9318519,8.71259259 L95.9318519,5.19111111 L94.9111111,5.19111111 L94.9111111,4.02814815 L95.9318519,4.02814815 L95.9318519,2.74814815 L97.4533333,2.28888889 L97.4533333,4.02666667 L99.162963,4.02666667 L99.162963,5.19111111 L99.1644444,5.19111111 Z"></path>
                                <path d="M107.383704,11.0118519 L105.82963,11.0118519 L105.82963,7.04148148 C105.82963,5.78962963 105.361481,5.16296296 104.423704,5.16296296 C103.703704,5.16296296 103.211852,5.52592593 102.942222,6.25185185 C102.896296,6.40444444 102.86963,6.59111111 102.86963,6.81037037 L102.86963,11.0103704 L101.318519,11.0103704 L101.318519,0.823703704 L102.86963,0.823703704 L102.86963,5.03259259 L102.899259,5.03259259 C103.388148,4.26666667 104.088889,3.88444444 104.997037,3.88444444 C105.64,3.88444444 106.171852,4.09481481 106.594074,4.51703704 C107.12,5.04296296 107.383704,5.82518519 107.383704,6.85925926 L107.383704,11.0118519 L107.383704,11.0118519 Z"></path>
                                <path d="M115.862222,7.18962963 C115.862222,7.46814815 115.841481,7.70222222 115.804444,7.89333333 L111.148148,7.89333333 C111.168889,8.5837037 111.391111,9.10962963 111.822222,9.47407407 C112.216296,9.8 112.724444,9.96296296 113.346667,9.96296296 C114.035556,9.96296296 114.663704,9.85333333 115.22963,9.63259259 L115.472593,10.7111111 C114.81037,10.9985185 114.031111,11.1422222 113.128889,11.1422222 C112.047407,11.1422222 111.195556,10.8237037 110.579259,10.1866667 C109.96,9.54962963 109.653333,8.69481481 109.653333,7.62222222 C109.653333,6.56888889 109.939259,5.69185185 110.515556,4.99259259 C111.117037,4.24592593 111.93037,3.87259259 112.957037,3.87259259 C113.961481,3.87259259 114.724444,4.24592593 115.24,4.99259259 C115.656296,5.58518519 115.862222,6.31851852 115.862222,7.18962963 L115.862222,7.18962963 Z M114.380741,6.78814815 C114.392593,6.32740741 114.29037,5.93037037 114.08,5.59555556 C113.81037,5.16444444 113.4,4.94814815 112.844444,4.94814815 C112.337778,4.94814815 111.924444,5.15851852 111.608889,5.58074074 C111.351111,5.91703704 111.198519,6.31851852 111.148148,6.78814815 L114.380741,6.78814815 L114.380741,6.78814815 Z"></path>
                            </g>
                        </g>
                    </g>
                </g>
            </g>
        </g>
    </g>
</svg>